<?xml version="1.0" encoding="UTF-8" standalone="no"?>
<svg
   xmlns:dc="http://purl.org/dc/elements/1.1/"
   xmlns:cc="http://creativecommons.org/ns#"
   xmlns:rdf="http://www.w3.org/1999/02/22-rdf-syntax-ns#"
   xmlns:svg="http://www.w3.org/2000/svg"
   xmlns="http://www.w3.org/2000/svg"
   xmlns:sodipodi="http://sodipodi.sourceforge.net/DTD/sodipodi-0.dtd"
   xmlns:inkscape="http://www.inkscape.org/namespaces/inkscape"
   version="1.1"
   id="svg1884"
   xml:space="preserve"
   width="793.70667"
   height="793.70667"
   viewBox="0 0 793.70667 793.70667"
   sodipodi:docname="boy.svg"
   inkscape:export-filename="D:\S_Work\NASA_Hackanthon\Github_NASA_MarsTravelProject\NASA_MARS_travel_Contest2021\NASA_Mars_Travel\Assets\Avatars\vecteezy_isolated-boy-avatars-with-different-facial-expressions-flat-illustration-women-s-emotional-faces_1261028\Boy-Helper.png"
   inkscape:export-xdpi="96"
   inkscape:export-ydpi="96"
   inkscape:version="1.0.1 (3bc2e813f5, 2020-09-07)"><metadata
     id="metadata1890"><rdf:RDF><cc:Work
         rdf:about=""><dc:format>image/svg+xml</dc:format><dc:type
           rdf:resource="http://purl.org/dc/dcmitype/StillImage" /><dc:title></dc:title></cc:Work></rdf:RDF></metadata><defs
     id="defs1888" /><sodipodi:namedview
     pagecolor="#ffffff"
     bordercolor="#666666"
     borderopacity="1"
     objecttolerance="10"
     gridtolerance="10"
     guidetolerance="10"
     inkscape:pageopacity="0"
     inkscape:pageshadow="2"
     inkscape:window-width="1366"
     inkscape:window-height="705"
     id="namedview1886"
     showgrid="false"
     inkscape:zoom="0.67657237"
     inkscape:cx="396.85333"
     inkscape:cy="396.85333"
     inkscape:window-x="-8"
     inkscape:window-y="-8"
     inkscape:window-maximized="1"
     inkscape:current-layer="g1892" /><g
     id="g1892"
     inkscape:groupmode="layer"
     inkscape:label="ink_ext_XXXXXX"
     transform="matrix(1.3333333,0,0,-1.3333333,0,793.70667)"><g
       id="g1894"
       transform="scale(0.1)"><path
         d="m 2977.99,1940.8 c -507.63,0 -919.16,-411.54 -919.16,-919.17 0,-507.638 411.53,-919.161 919.16,-919.161 507.64,0 919.18,411.523 919.18,919.161 0,507.63 -411.54,919.17 -919.18,919.17"
         style="fill:#e4f2f2;fill-opacity:1;fill-rule:nonzero;stroke:none"
         id="path1896" /><path
         d="m 3577.35,324.77 c -7.93,8.871 -16.02,16.261 -24.22,21.402 -81.33,50.898 -367.48,41.66 -393.63,124.918 -7.8,24.84 -10.92,56.289 -11.51,88.18 -1.32,74.972 11.51,152.429 11.51,152.429 l -181.51,54.86 -181.5,-54.86 c 0,0 13.18,-79.359 11.46,-155.199 -0.72,-30.918 -3.88,-61.27 -11.46,-85.41 -26.15,-83.258 -312.29,-74.02 -393.61,-124.918 -8.23,-5.152 -16.29,-12.531 -24.24,-21.402 160.94,-138.528 370.35,-222.301 599.35,-222.301 229.01,0 438.44,83.773 599.36,222.301"
         style="fill:#ffba7f;fill-opacity:1;fill-rule:nonzero;stroke:none"
         id="path1898" /><path
         d="M 2977.99,794.332 2793.33,740.23 c 0,0 16.34,-94.011 14.62,-169.839 32.66,-37.211 166.27,-41.86 167.8,-41.84 1.52,-0.02 137.61,6.961 172.24,44.59 -1.32,74.98 14.02,166.66 14.02,166.66 l -184.02,54.531"
         style="fill:#f2a068;fill-opacity:1;fill-rule:nonzero;stroke:none"
         id="path1900" /><path
         d="m 3577.35,324.77 c -7.93,8.871 -16.02,16.261 -24.22,21.402 -62.01,38.828 -246.25,43.891 -340.33,80.457 l -237.05,-231.77 -224.63,235.161 -0.2,-0.02 c -90.27,-40.871 -283.51,-43.441 -348.04,-83.828 -8.23,-5.152 -16.29,-12.531 -24.24,-21.402 160.94,-138.528 370.35,-222.301 599.35,-222.301 229.01,0 438.44,83.773 599.36,222.301"
         style="fill:#db9837;fill-opacity:1;fill-rule:nonzero;stroke:none"
         id="path1902" /><path
         d="m 2641.55,1125.25 c 0,0 -52.8,73.87 -103.16,59.28 -50.34,-14.63 -38.71,-90.24 -38.71,-118.38 -0.06,-28.16 42.05,-127.748 70.29,-138.689 71.52,-27.762 71.58,76.519 71.58,76.519 v 121.27"
         style="fill:#ffba7f;fill-opacity:1;fill-rule:nonzero;stroke:none"
         id="path1904" /><path
         d="m 3419.76,1184.51 c -50.36,14.65 -103.21,-59.1 -103.21,-59.1 v -121.39 c 0,0 -0.13,-107.5 71.52,-76.579 27.72,12.008 70.32,110.619 70.4,138.709 0,28.11 11.66,103.75 -38.71,118.36"
         style="fill:#fcaf75;fill-opacity:1;fill-rule:nonzero;stroke:none"
         id="path1906" /><path
         d="m 3359.13,1156.66 c 0,180.29 -4.06,304.24 -139.27,416.89 -129.93,108.28 -354.77,108.22 -484.64,0 -135.19,-112.67 -139.27,-236.62 -139.27,-416.91 0,-180.3 12.27,-231.269 12.27,-231.269 0,0 24.49,-132.949 52.47,-167.93 27.99,-35 56.09,-52.48 136.55,-122.441 76.57,-66.598 116.42,-72.969 176.05,-73.418 l 0.23,-0.043 c 1.55,0 3,0 4.5,0.02 1.53,-0.02 2.96,-0.02 4.51,-0.02 l 0.23,0.043 c 59.65,0.449 99.48,6.82 176.04,73.418 80.47,69.961 108.56,87.441 136.56,122.441 27.97,34.981 52.48,167.93 52.48,167.93 l -0.25,0.238 c 0.3,1.52 0.43,2.383 0.43,2.383 0,0 11.11,48.348 11.11,228.668"
         style="fill:#ffba7f;fill-opacity:1;fill-rule:nonzero;stroke:none"
         id="path1908" /><path
         d="m 2982.53,561.539 0.23,0.043 c 59.65,0.449 99.48,6.82 176.04,73.418 80.47,69.961 108.56,87.441 136.56,122.441 27.97,34.981 52.48,167.93 52.48,167.93 l -0.25,0.238 c 0.3,1.52 0.43,2.383 0.43,2.383 0,0 11.11,48.348 11.11,228.668 0,180.29 -4.06,304.24 -139.27,416.89 -65,54.16 -153.73,81.22 -242.42,81.17 V 561.559 h 0.58 c 1.53,-0.02 2.96,-0.02 4.51,-0.02"
         style="fill:#fcaf75;fill-opacity:1;fill-rule:nonzero;stroke:none"
         id="path1910" /><path
         d="m 3082.32,1702.32 c -170.42,39.37 -264.91,-26.48 -264.91,-26.48 0,0 -25.06,20.04 -5.76,45.82 -47.25,-6.44 -60.16,-55.13 -75.22,-92.4 -47.19,15.03 -85.18,-5 -85.18,-5 0,0 37.99,-29.33 -2.89,-63.03 -102.17,-84.31 -69.96,-181.03 -61.78,-200.99 0.08,-116.15 2.92,-290.08 18.54,-277.48 12.9,10.37 34.78,107.63 54.78,199.63 70.66,73.22 125.44,114.18 137.82,171.85 0,0 79.9,-103.49 187.59,-127.83 88.79,-20.09 198.66,-37.27 245.26,-27.96 -40.12,40.12 -51.58,115.99 -51.58,115.99 0,0 62.04,-113.61 120.43,-123.53 20.07,-97.62 42.79,-207.23 53.59,-216.31 15.69,-13.21 17.18,182.55 16.82,285.64 58.21,181 -166.9,314.22 -287.51,342.08"
         style="fill:#683c11;fill-opacity:1;fill-rule:nonzero;stroke:none"
         id="path1912" /><path
         d="m 2853.29,1086.29 c 0,-25.41 -20.61,-46.02 -46.03,-46.02 -25.41,0 -46.04,20.61 -46.04,46.02 0,25.45 20.63,46.03 46.04,46.03 25.42,0 46.03,-20.58 46.03,-46.03"
         style="fill:#683c11;fill-opacity:1;fill-rule:nonzero;stroke:none"
         id="path1914" /><path
         d="m 3147.33,1132.32 c -25.45,0 -46.03,-20.58 -46.03,-46.03 0,-25.41 20.58,-46.02 46.03,-46.02 25.4,0 46.03,20.61 46.03,46.02 0,25.45 -20.63,46.03 -46.03,46.03"
         style="fill:#432918;fill-opacity:1;fill-rule:nonzero;stroke:none"
         id="path1916" /><path
         d="m 2807.52,1132.75 c 25.47,0 46.03,-20.6 46.03,-46.03 0,-25.41 -20.56,-46.02 -46.03,-46.02 -25.4,0 -46.01,20.61 -46.01,46.02 0,25.43 20.61,46.03 46.01,46.03"
         style="fill:#432918;fill-opacity:1;fill-rule:nonzero;stroke:none"
         id="path1918" /><path
         d="m 2812.32,1216.2 c 44.8,-15.02 58.76,-16.88 98.47,-23.75 20.93,-3.61 -17.57,-55.49 -105.97,-22.81 -74.68,27.61 -132.48,34.27 -132.48,34.27 0,0 75.67,33.83 139.98,12.29"
         style="fill:#683c11;fill-opacity:1;fill-rule:nonzero;stroke:none"
         id="path1920" /><path
         d="m 3143.06,1215.77 c -44.8,-15.02 -58.76,-16.88 -98.47,-23.75 -20.93,-3.61 17.57,-55.49 105.97,-22.81 74.68,27.61 132.48,34.27 132.48,34.27 0,0 -75.67,33.83 -139.98,12.29"
         style="fill:#683c11;fill-opacity:1;fill-rule:nonzero;stroke:none"
         id="path1922" /><path
         d="m 3123.8,794.199 c 0,0 -156.24,-67.886 -245.58,-38.937 57.08,15.98 101.06,18.847 151.95,30.488 30.88,7.07 93.63,8.449 93.63,8.449"
         style="fill:#e58965;fill-opacity:1;fill-rule:nonzero;stroke:none"
         id="path1924" /><path
         d="m 3123.17,793.922 c 0,0 -203.67,13.508 -244.95,-38.66 56.91,10.238 107.61,21.488 160.64,27.558 32.19,3.7 84.31,11.102 84.31,11.102"
         style="fill:#e28156;fill-opacity:1;fill-rule:nonzero;stroke:none"
         id="path1926" /><path
         d="m 4932.59,1940.8 c -507.63,0 -919.16,-411.53 -919.16,-919.17 0,-507.638 411.53,-919.161 919.16,-919.161 507.64,0 919.18,411.523 919.18,919.161 0,507.64 -411.54,919.17 -919.18,919.17"
         style="fill:#e4f2f2;fill-opacity:1;fill-rule:nonzero;stroke:none"
         id="path1928" /><path
         d="m 5531.95,324.77 c -7.93,8.871 -16.02,16.261 -24.22,21.402 -81.33,50.898 -367.48,41.66 -393.63,124.918 -7.8,24.84 -10.92,56.289 -11.51,88.18 -1.33,74.972 11.51,152.429 11.51,152.429 l -181.51,54.86 -181.5,-54.86 c 0,0 13.18,-79.359 11.46,-155.199 -0.72,-30.918 -3.88,-61.27 -11.46,-85.41 -26.15,-83.258 -312.29,-74.02 -393.61,-124.918 -8.23,-5.152 -16.29,-12.531 -24.24,-21.402 160.93,-138.528 370.35,-222.301 599.35,-222.301 229.01,0 438.44,83.773 599.36,222.301"
         style="fill:#ffba7f;fill-opacity:1;fill-rule:nonzero;stroke:none"
         id="path1930" /><path
         d="M 4932.59,794.332 4747.92,740.23 c 0,0 16.35,-94.011 14.63,-169.839 32.66,-37.211 166.27,-41.86 167.8,-41.84 1.52,-0.02 137.61,6.961 172.24,44.59 -1.33,74.98 14.02,166.66 14.02,166.66 l -184.02,54.531"
         style="fill:#f2a068;fill-opacity:1;fill-rule:nonzero;stroke:none"
         id="path1932" /><path
         d="m 5531.95,324.77 c -7.93,8.871 -16.02,16.261 -24.22,21.402 -62.01,38.828 -246.25,43.891 -340.33,80.457 l -237.05,-231.77 -224.63,235.161 -0.2,-0.02 c -90.27,-40.871 -283.51,-43.441 -348.04,-83.828 -8.23,-5.152 -16.29,-12.531 -24.24,-21.402 160.93,-138.528 370.35,-222.301 599.35,-222.301 229.01,0 438.44,83.773 599.36,222.301"
         style="fill:#db9837;fill-opacity:1;fill-rule:nonzero;stroke:none"
         id="path1934" /><path
         d="m 4596.15,1125.25 c 0,0 -52.8,73.87 -103.16,59.28 -50.34,-14.63 -38.71,-90.24 -38.71,-118.38 -0.06,-28.16 42.05,-127.748 70.29,-138.689 71.52,-27.762 71.58,76.519 71.58,76.519 v 121.27"
         style="fill:#ffba7f;fill-opacity:1;fill-rule:nonzero;stroke:none"
         id="path1936" /><path
         d="m 5374.36,1184.51 c -50.36,14.65 -103.21,-59.1 -103.21,-59.1 v -121.39 c 0,0 -0.13,-107.5 71.52,-76.579 27.72,12.008 70.32,110.619 70.4,138.709 0,28.1 11.66,103.75 -38.71,118.36"
         style="fill:#fcaf75;fill-opacity:1;fill-rule:nonzero;stroke:none"
         id="path1938" /><path
         d="m 5313.72,1156.66 c 0,180.29 -4.05,304.24 -139.26,416.89 -129.93,108.28 -354.77,108.23 -484.64,0 -135.19,-112.67 -139.27,-236.62 -139.27,-416.91 0,-180.288 12.27,-231.269 12.27,-231.269 0,0 24.49,-132.949 52.47,-167.93 27.99,-35 56.09,-52.48 136.55,-122.441 76.57,-66.598 116.42,-72.969 176.04,-73.418 l 0.24,-0.043 c 1.55,0 3,0 4.5,0.02 1.52,-0.02 2.96,-0.02 4.51,-0.02 l 0.23,0.043 c 59.65,0.449 99.48,6.82 176.04,73.418 80.47,69.961 108.56,87.441 136.56,122.441 27.97,34.981 52.48,167.93 52.48,167.93 l -0.25,0.238 c 0.3,1.52 0.43,2.383 0.43,2.383 0,0 11.1,48.36 11.1,228.668"
         style="fill:#ffba7f;fill-opacity:1;fill-rule:nonzero;stroke:none"
         id="path1940" /><path
         d="m 4937.13,561.539 0.23,0.043 c 59.65,0.449 99.48,6.82 176.04,73.418 80.47,69.961 108.56,87.441 136.56,122.441 27.97,34.981 52.48,167.93 52.48,167.93 l -0.25,0.238 c 0.3,1.52 0.43,2.383 0.43,2.383 0,0 11.1,48.36 11.1,228.668 0,180.29 -4.05,304.24 -139.26,416.89 -65,54.16 -153.73,81.22 -242.42,81.17 V 561.559 h 0.58 c 1.52,-0.02 2.96,-0.02 4.51,-0.02"
         style="fill:#fcaf75;fill-opacity:1;fill-rule:nonzero;stroke:none"
         id="path1942" /><path
         d="m 5036.92,1702.32 c -170.42,39.37 -264.91,-26.48 -264.91,-26.48 0,0 -25.06,20.03 -5.76,45.81 -47.25,-6.43 -60.16,-55.12 -75.22,-92.38 -47.19,15.02 -85.19,-5.01 -85.19,-5.01 0,0 38,-29.33 -2.88,-63.03 -102.17,-84.31 -69.96,-181.03 -61.78,-200.99 0.07,-116.15 2.92,-290.08 18.54,-277.48 12.9,10.37 34.78,107.63 54.78,199.63 70.66,73.22 125.44,114.18 137.82,171.84 0,0 79.9,-103.48 187.59,-127.82 88.79,-20.09 198.66,-37.27 245.26,-27.96 -40.12,40.12 -51.58,115.99 -51.58,115.99 0,0 62.04,-113.61 120.43,-123.53 20.07,-97.62 42.79,-207.23 53.59,-216.31 15.68,-13.21 17.18,182.55 16.82,285.64 58.21,181 -166.9,314.22 -287.51,342.08"
         style="fill:#683c11;fill-opacity:1;fill-rule:nonzero;stroke:none"
         id="path1944" /><path
         d="m 4807.87,1086.38 c 0,-25.42 -20.6,-46.02 -46.02,-46.02 -25.41,0 -46.05,20.6 -46.05,46.02 0,25.44 20.64,46.03 46.05,46.03 25.42,0 46.02,-20.59 46.02,-46.03"
         style="fill:#683c11;fill-opacity:1;fill-rule:nonzero;stroke:none"
         id="path1946" /><path
         d="m 5111.94,1233.66 c -51.33,0.51 -85.44,-43.3 -99.19,-61.43 -13.76,-18.12 56.62,12.97 103.3,16.45 52.59,3.91 131.42,-30.78 131.42,-30.78 0,0 -62.78,75.04 -135.53,75.76"
         style="fill:#683c11;fill-opacity:1;fill-rule:nonzero;stroke:none"
         id="path1948" /><path
         d="m 5101.91,1132.41 c -25.45,0 -46.02,-20.59 -46.02,-46.03 0,-25.42 20.57,-46.02 46.02,-46.02 25.4,0 46.04,20.6 46.04,46.02 0,25.44 -20.64,46.03 -46.04,46.03"
         style="fill:#432918;fill-opacity:1;fill-rule:nonzero;stroke:none"
         id="path1950" /><path
         d="m 4752.09,1234.07 c 51.35,0.51 85.46,-43.28 99.21,-61.43 13.73,-18.12 -56.61,12.97 -103.29,16.45 -52.63,3.92 -131.45,-30.78 -131.45,-30.78 0,0 62.79,75.04 135.53,75.76"
         style="fill:#683c11;fill-opacity:1;fill-rule:nonzero;stroke:none"
         id="path1952" /><path
         d="m 4762.11,1132.84 c 25.47,0 46.02,-20.61 46.02,-46.04 0,-25.41 -20.55,-46.01 -46.02,-46.01 -25.4,0 -46.02,20.6 -46.02,46.01 0,25.43 20.62,46.04 46.02,46.04"
         style="fill:#432918;fill-opacity:1;fill-rule:nonzero;stroke:none"
         id="path1954" /><path
         d="m 4811.24,830.512 52.03,-1.403 71.9,-0.918 80.73,2.11 45.11,-4.879 -60.12,-60.16 -127.91,10.527 -61.51,49.652"
         style="fill:#ffffff;fill-opacity:1;fill-rule:nonzero;stroke:none"
         id="path1956" /><path
         d="m 4837.31,826.84 c 0,0 -3.8,-28.879 99.93,-28.238 105.56,0.66 93.61,27.519 93.61,27.519 l -97.26,-0.941 -88.82,4.16"
         style="fill:#ffffff;fill-opacity:1;fill-rule:nonzero;stroke:none"
         id="path1958" /><path
         d="m 4801.72,833.84 c 0,0 72.19,7.051 100.01,8 22.19,0.73 29.75,-7.871 38.52,-6.93 10.35,1.11 18.43,6.192 41.33,7.031 22.98,0.719 88.05,-11.211 88.05,-11.211 0,0 -6.06,-15.8 -132.47,-15.058 -116.88,0.699 -135.44,18.168 -135.44,18.168"
         style="fill:#e28156;fill-opacity:1;fill-rule:nonzero;stroke:none"
         id="path1960" /><path
         d="m 4816.33,828.742 -14.61,5.098 c 0,0 42.29,-87.641 134.98,-86.86 105.08,0.942 132.93,83.75 132.93,83.75 l -13.9,-4.589 c 0,0 -37.13,-50.411 -119.07,-51.071 -71.99,-0.57 -120.33,53.672 -120.33,53.672"
         style="fill:#e28156;fill-opacity:1;fill-rule:nonzero;stroke:none"
         id="path1962" /><path
         d="m 4986.41,1112.36 c 0,0 -52.86,25.72 -104.68,3.31 -14.27,-6.18 10.4,-38.86 10.4,-38.86 0,0 45.13,21.95 77.36,-2.76 12.17,-9.33 16.92,38.31 16.92,38.31"
         style="fill:#1d1d1b;fill-opacity:1;fill-rule:nonzero;stroke:none"
         id="path1964" /><path
         d="m 4707.95,958.152 c -140.52,0.309 -147.57,99.148 -146.57,120.938 1.76,36.24 21.18,69.18 147.18,68.83 104.81,-0.22 169.3,-22.91 169.14,-64.41 -0.19,-47.12 -29.14,-125.709 -169.75,-125.358 m 192.21,119.788 -9.24,33.74 c 0,0 -16.75,53.53 -192.71,53.91 -175.93,0.43 -170.24,-62.4 -170.24,-62.4 0,0 -12.33,-161.088 185.1,-161.518 197.37,-0.512 187.09,136.268 187.09,136.268"
         style="fill:#1d1d1b;fill-opacity:1;fill-rule:nonzero;stroke:none"
         id="path1966" /><path
         d="m 5155.24,957.102 c -140.51,0.347 -169.1,79.038 -168.91,126.188 0.1,41.44 64.67,63.86 169.53,63.61 125.99,-0.32 145.16,-33.32 146.76,-69.55 0.87,-21.78 -6.78,-120.561 -147.38,-120.248 m 180.87,144.208 c 0,0 6.09,62.77 -169.82,63.21 -175.97,0.41 -193.01,-53.05 -193.01,-53.05 l -9.52,-33.73 c 0,0 -11.11,-136.658 186.29,-137.111 197.41,-0.488 186.06,160.681 186.06,160.681"
         style="fill:#1d1d1b;fill-opacity:1;fill-rule:nonzero;stroke:none"
         id="path1968" /><path
         d="m 4708.88,958.152 v 0 c -0.3,0 -0.62,0 -0.93,0 v 0 c -134.07,0.297 -146.64,90.288 -146.65,117.468 0,1.31 0.03,2.47 0.08,3.47 v 0 c 0.1,2.03 0.25,4.05 0.48,6.05 3.61,5.06 7.79,15.71 12.36,30.31 16.46,19.08 52.94,32.47 132.32,32.47 0.01,0 0.02,0 0.03,0 v 0 c 0.34,0 0.7,0 1.04,0 0.05,0 0.1,0 0.14,0 0.05,0 0.09,0 0.14,0 0.04,0 0.11,0 0.15,0 0.02,0 0.02,0 0.03,0 0.08,0 0.16,0 0.24,0 h 0.01 c 0.09,0 0.16,0 0.24,0 v 0 c 104.71,-0.22 169.17,-22.87 169.14,-64.29 0,-0.04 0,-0.08 0,-0.12 -0.19,-47.01 -29.01,-125.338 -168.78,-125.358 -0.01,0 -0.03,0 -0.04,0 m 15,154.278 c -5.1,-7.41 -8.08,-16.38 -8.08,-26.05 0,-25.42 20.64,-46.02 46.05,-46.02 16.35,0 30.72,8.53 38.88,21.38 4.68,7.22 7.4,15.82 7.4,25.06 0,25.43 -20.55,46.04 -46.02,46.04 -15.93,0 -29.97,-8.1 -38.23,-20.41"
         style="fill:#ffc899;fill-opacity:1;fill-rule:nonzero;stroke:none"
         id="path1970" /><path
         d="m 4561.86,1085.14 c 1.21,10.84 4.51,21.22 12.36,30.31 -4.57,-14.6 -8.75,-25.25 -12.36,-30.31"
         style="fill:#866341;fill-opacity:1;fill-rule:nonzero;stroke:none"
         id="path1972" /><path
         d="m 4761.85,1040.36 c -25.41,0 -46.05,20.6 -46.05,46.02 0,9.67 2.98,18.64 8.08,26.05 -4.92,-7.33 -7.79,-16.14 -7.79,-25.63 0,-25.41 20.62,-46.01 46.02,-46.01 16.21,0 30.42,8.34 38.62,20.95 -8.16,-12.85 -22.53,-21.38 -38.88,-21.38"
         style="fill:#866341;fill-opacity:1;fill-rule:nonzero;stroke:none"
         id="path1974" /><path
         d="m 4762.11,1040.79 c -25.4,0 -46.02,20.6 -46.02,46.01 0,9.49 2.87,18.3 7.79,25.63 8.26,12.31 22.3,20.41 38.23,20.41 25.47,0 46.02,-20.61 46.02,-46.04 0,-9.24 -2.72,-17.84 -7.4,-25.06 -8.2,-12.61 -22.41,-20.95 -38.62,-20.95"
         style="fill:#695446;fill-opacity:1;fill-rule:nonzero;stroke:none"
         id="path1976" /><path
         d="m 4708.88,958.152 v 0 0 0 m 0.04,0 c 139.77,0.02 168.59,78.348 168.78,125.358 0,0.04 0,0.08 0,0.12 0,-0.04 0,-0.08 0,-0.12 -0.19,-47.01 -28.99,-125.35 -168.78,-125.358 m -0.97,0 v 0 c -134.07,0.297 -146.64,90.288 -146.65,117.468 0.01,-27.18 12.58,-117.171 146.65,-117.468 v 0 m -146.57,120.938 c 1.76,36.05 20.94,68.83 145.16,68.83 -79.38,0 -115.86,-13.39 -132.32,-32.47 -7.85,-9.09 -11.15,-19.47 -12.36,-30.31 -0.23,-2 -0.38,-4.02 -0.48,-6.05 m 147.18,68.83 c -0.08,0 -0.15,0 -0.24,0 0.09,0 0.16,0 0.24,0 m -0.25,0 c -0.08,0 -0.16,0 -0.24,0 0.08,0 0.16,0 0.24,0 m -0.27,0 c -0.04,0 -0.11,0 -0.15,0 0.04,0 0.11,0 0.15,0 m -0.29,0 c -0.04,0 -0.09,0 -0.14,0 0.05,0 0.1,0 0.14,0 m -1.18,0 v 0 0 0"
         style="fill:#4a4a49;fill-opacity:1;fill-rule:nonzero;stroke:none"
         id="path1978" /><path
         d="m 5155.89,957.102 c -0.22,0 -0.42,0 -0.65,0 -140.1,0.347 -168.93,78.578 -168.91,125.768 0,0.14 0,0.28 0,0.42 0.1,41.21 63.95,63.61 167.77,63.61 0.59,0 1.17,0 1.76,0 90.82,-0.23 126.13,-17.45 139.37,-40.61 2.42,-8.57 4.67,-15.72 6.72,-21.09 0.34,-2.59 0.55,-5.21 0.67,-7.85 0.03,-0.85 0.05,-1.82 0.05,-2.89 0.02,-26.4 -12.3,-117.358 -146.78,-117.358 m -53.98,175.308 c -25.45,0 -46.02,-20.59 -46.02,-46.03 0,-25.42 20.57,-46.02 46.02,-46.02 25.4,0 46.04,20.6 46.04,46.02 0,25.44 -20.64,46.03 -46.04,46.03"
         style="fill:#fdbf91;fill-opacity:1;fill-rule:nonzero;stroke:none"
         id="path1980" /><path
         d="m 5301.95,1085.2 c -2.05,5.37 -4.3,12.52 -6.72,21.09 3.79,-6.63 5.77,-13.74 6.72,-21.09"
         style="fill:#866341;fill-opacity:1;fill-rule:nonzero;stroke:none"
         id="path1982" /><path
         d="m 5101.91,1040.36 c -25.45,0 -46.02,20.6 -46.02,46.02 0,25.44 20.57,46.03 46.02,46.03 25.4,0 46.04,-20.59 46.04,-46.03 0,-25.42 -20.64,-46.02 -46.04,-46.02"
         style="fill:#695446;fill-opacity:1;fill-rule:nonzero;stroke:none"
         id="path1984" /><path
         d="m 4936.81,3895.57 c -507.64,0 -919.16,-411.53 -919.16,-919.17 0,-507.63 411.52,-919.16 919.16,-919.16 507.64,0 919.18,411.53 919.18,919.16 0,507.64 -411.54,919.17 -919.18,919.17"
         style="fill:#e4f2f2;fill-opacity:1;fill-rule:nonzero;stroke:none"
         id="path1986" /><path
         d="m 5536.17,2279.55 c -7.93,8.87 -16.02,16.26 -24.22,21.39 -81.33,50.9 -367.48,41.66 -393.63,124.93 -7.8,24.84 -10.92,56.29 -11.51,88.18 -1.33,74.96 11.51,152.42 11.51,152.42 l -181.51,54.87 -181.5,-54.87 c 0,0 13.18,-79.35 11.46,-155.19 -0.72,-30.92 -3.88,-61.27 -11.46,-85.41 -26.15,-83.27 -312.29,-74.03 -393.62,-124.93 -8.22,-5.14 -16.28,-12.52 -24.23,-21.39 160.93,-138.54 370.35,-222.31 599.35,-222.31 229.01,0 438.44,83.77 599.36,222.31"
         style="fill:#ffba7f;fill-opacity:1;fill-rule:nonzero;stroke:none"
         id="path1988" /><path
         d="m 4936.81,2749.11 -184.67,-54.1 c 0,0 16.35,-94.03 14.63,-169.85 32.66,-37.2 166.27,-41.85 167.8,-41.83 1.52,-0.02 137.61,6.95 172.24,44.59 -1.33,74.98 14.02,166.66 14.02,166.66 l -184.02,54.53"
         style="fill:#f2a068;fill-opacity:1;fill-rule:nonzero;stroke:none"
         id="path1990" /><path
         d="m 5536.17,2279.55 c -7.93,8.87 -16.02,16.26 -24.22,21.39 -62.01,38.83 -246.25,43.89 -340.33,80.45 l -237.05,-231.75 -224.63,235.15 -0.2,-0.02 c -90.27,-40.88 -283.51,-43.43 -348.05,-83.83 -8.22,-5.14 -16.28,-12.52 -24.23,-21.39 160.93,-138.54 370.35,-222.31 599.35,-222.31 229.01,0 438.44,83.77 599.36,222.31"
         style="fill:#db9837;fill-opacity:1;fill-rule:nonzero;stroke:none"
         id="path1992" /><path
         d="m 4600.37,3080.03 c 0,0 -52.8,73.86 -103.16,59.27 -50.34,-14.63 -38.71,-90.23 -38.71,-118.38 -0.06,-28.16 42.05,-127.75 70.28,-138.69 71.53,-27.75 71.59,76.53 71.59,76.53 v 121.27"
         style="fill:#ffba7f;fill-opacity:1;fill-rule:nonzero;stroke:none"
         id="path1994" /><path
         d="m 5378.58,3139.28 c -50.36,14.65 -103.21,-59.1 -103.21,-59.1 V 2958.8 c 0,0 -0.13,-107.5 71.52,-76.59 27.71,12.02 70.32,110.63 70.4,138.71 0,28.11 11.66,103.75 -38.71,118.36"
         style="fill:#fcaf75;fill-opacity:1;fill-rule:nonzero;stroke:none"
         id="path1996" /><path
         d="m 5317.94,3111.43 c 0,180.3 -4.05,304.24 -139.26,416.9 -129.93,108.28 -354.77,108.22 -484.64,0 -135.19,-112.68 -139.27,-236.62 -139.27,-416.92 0,-180.29 12.27,-231.27 12.27,-231.27 0,0 24.49,-132.95 52.47,-167.93 27.99,-35 56.09,-52.48 136.55,-122.44 76.57,-66.6 116.42,-72.97 176.04,-73.42 l 0.24,-0.03 c 1.55,0 3,0 4.5,0.02 1.52,-0.02 2.96,-0.02 4.51,-0.02 l 0.23,0.03 c 59.65,0.45 99.48,6.82 176.04,73.42 80.47,69.96 108.56,87.44 136.55,122.44 27.98,34.98 52.49,167.93 52.49,167.93 l -0.25,0.24 c 0.29,1.52 0.43,2.38 0.43,2.38 0,0 11.1,48.36 11.1,228.67"
         style="fill:#ffba7f;fill-opacity:1;fill-rule:nonzero;stroke:none"
         id="path1998" /><path
         d="m 4941.35,2516.32 0.23,0.03 c 59.65,0.45 99.48,6.82 176.04,73.42 80.47,69.96 108.56,87.44 136.55,122.44 27.98,34.98 52.49,167.93 52.49,167.93 l -0.25,0.24 c 0.29,1.52 0.43,2.38 0.43,2.38 0,0 11.1,48.36 11.1,228.67 0,180.3 -4.05,304.24 -139.26,416.9 -65,54.16 -153.73,81.21 -242.43,81.17 V 2516.34 h 0.59 c 1.52,-0.02 2.96,-0.02 4.51,-0.02"
         style="fill:#fcaf75;fill-opacity:1;fill-rule:nonzero;stroke:none"
         id="path2000" /><path
         d="m 5041.14,3657.1 c -170.42,39.35 -264.91,-26.49 -264.91,-26.49 0,0 -25.06,20.04 -5.77,45.82 -47.24,-6.43 -60.15,-55.11 -75.21,-92.39 -47.19,15.03 -85.19,-5.01 -85.19,-5.01 0,0 38,-29.32 -2.88,-63.03 -102.18,-84.29 -69.96,-181.01 -61.78,-200.97 0.07,-116.16 2.92,-290.09 18.54,-277.48 12.9,10.37 34.78,107.61 54.78,199.62 70.66,73.22 125.44,114.18 137.82,171.84 0,0 79.9,-103.48 187.59,-127.81 88.79,-20.11 198.66,-37.29 245.26,-27.97 -40.12,40.12 -51.58,116 -51.58,116 0,0 62.04,-113.62 120.43,-123.55 20.07,-97.61 42.79,-207.24 53.59,-216.31 15.68,-13.19 17.18,182.55 16.82,285.65 58.21,180.98 -166.9,314.23 -287.51,342.08"
         style="fill:#683c11;fill-opacity:1;fill-rule:nonzero;stroke:none"
         id="path2002" /><path
         d="m 5082.62,2748.97 c 0,0 -156.24,-67.89 -245.58,-38.94 57.08,15.98 101.06,18.86 151.95,30.5 30.88,7.06 93.63,8.44 93.63,8.44"
         style="fill:#e58965;fill-opacity:1;fill-rule:nonzero;stroke:none"
         id="path2004" /><path
         d="m 5081.99,2748.7 c 0,0 -203.67,13.51 -244.95,-38.67 56.91,10.24 107.6,21.48 160.64,27.56 32.19,3.71 84.31,11.11 84.31,11.11"
         style="fill:#e28156;fill-opacity:1;fill-rule:nonzero;stroke:none"
         id="path2006" /><path
         d="m 5105.83,3086.69 c -25.45,0 -46.03,-20.59 -46.03,-46.04 0,-25.41 20.58,-46.01 46.03,-46.01 25.4,0 46.03,20.6 46.03,46.01 0,25.45 -20.63,46.04 -46.03,46.04"
         style="fill:#432918;fill-opacity:1;fill-rule:nonzero;stroke:none"
         id="path2008" /><path
         d="m 4766.02,3087.12 c 25.47,0 46.03,-20.61 46.03,-46.04 0,-25.41 -20.56,-46.01 -46.03,-46.01 -25.4,0 -46.02,20.6 -46.02,46.01 0,25.43 20.62,46.04 46.02,46.04"
         style="fill:#432918;fill-opacity:1;fill-rule:nonzero;stroke:none"
         id="path2010" /><path
         d="m 5117.84,3175.68 c -47.09,3.9 -60.65,7.71 -99.85,17.08 -20.65,4.94 -5.77,-57.92 88.34,-62.81 79.51,-4.14 135.25,-20.84 135.25,-20.84 0,0 -56.17,60.96 -123.74,66.57"
         style="fill:#683c11;fill-opacity:1;fill-rule:nonzero;stroke:none"
         id="path2012" /><path
         d="m 4770.82,3170.57 c 44.8,-15.02 58.76,-16.87 98.46,-23.75 20.94,-3.61 -17.57,-55.48 -105.96,-22.81 -74.68,27.61 -132.49,34.28 -132.49,34.28 0,0 75.68,33.83 139.99,12.28"
         style="fill:#683c11;fill-opacity:1;fill-rule:nonzero;stroke:none"
         id="path2014" /><path
         d="m 4931.77,5848.91 c -507.64,0 -919.16,-411.53 -919.16,-919.17 0,-507.63 411.52,-919.16 919.16,-919.16 507.63,0 919.18,411.53 919.18,919.16 0,507.64 -411.55,919.17 -919.18,919.17"
         style="fill:#e4f2f2;fill-opacity:1;fill-rule:nonzero;stroke:none"
         id="path2016" /><path
         d="m 5531.12,4232.89 c -7.93,8.87 -16.01,16.26 -24.22,21.39 -81.32,50.9 -367.48,41.66 -393.63,124.93 -7.79,24.84 -10.92,56.29 -11.5,88.18 -1.33,74.96 11.5,152.42 11.5,152.42 l -181.5,54.86 -181.51,-54.86 c 0,0 13.19,-79.35 11.47,-155.19 -0.72,-30.92 -3.89,-61.27 -11.47,-85.41 -26.15,-83.27 -312.28,-74.03 -393.61,-124.93 -8.22,-5.14 -16.29,-12.52 -24.24,-21.39 160.94,-138.54 370.35,-222.31 599.36,-222.31 229,0 438.44,83.77 599.35,222.31"
         style="fill:#ffba7f;fill-opacity:1;fill-rule:nonzero;stroke:none"
         id="path2018" /><path
         d="m 4931.77,4702.45 -184.67,-54.1 c 0,0 16.35,-94.03 14.63,-169.85 32.65,-37.2 166.27,-41.85 167.79,-41.83 1.52,-0.02 137.62,6.95 172.25,44.59 -1.33,74.98 14.02,166.66 14.02,166.66 l -184.02,54.53"
         style="fill:#f2a068;fill-opacity:1;fill-rule:nonzero;stroke:none"
         id="path2020" /><path
         d="m 5531.12,4232.89 c -7.93,8.87 -16.01,16.26 -24.22,21.39 -62.01,38.83 -246.25,43.89 -340.33,80.45 l -237.05,-231.75 -224.63,235.15 -0.19,-0.02 c -90.28,-40.88 -283.52,-43.44 -348.05,-83.83 -8.22,-5.14 -16.29,-12.52 -24.24,-21.39 160.94,-138.54 370.35,-222.31 599.36,-222.31 229,0 438.44,83.77 599.35,222.31"
         style="fill:#db9837;fill-opacity:1;fill-rule:nonzero;stroke:none"
         id="path2022" /><path
         d="m 4595.32,5033.37 c 0,0 -52.79,73.86 -103.15,59.27 -50.34,-14.62 -38.71,-90.23 -38.71,-118.37 -0.06,-28.17 42.05,-127.76 70.28,-138.7 71.52,-27.75 71.58,76.53 71.58,76.53 v 121.27"
         style="fill:#ffba7f;fill-opacity:1;fill-rule:nonzero;stroke:none"
         id="path2024" /><path
         d="m 5373.54,5092.63 c -50.37,14.64 -103.22,-59.11 -103.22,-59.11 v -121.38 c 0,0 -0.12,-107.5 71.53,-76.59 27.71,12.02 70.32,110.63 70.4,138.72 0,28.1 11.66,103.75 -38.71,118.36"
         style="fill:#fcaf75;fill-opacity:1;fill-rule:nonzero;stroke:none"
         id="path2026" /><path
         d="m 5312.9,5064.77 c 0,180.3 -4.05,304.24 -139.27,416.9 -129.93,108.28 -354.76,108.22 -484.64,0 -135.18,-112.68 -139.26,-236.62 -139.26,-416.92 0,-180.29 12.26,-231.27 12.26,-231.27 0,0 24.49,-132.95 52.47,-167.93 27.99,-35 56.1,-52.48 136.56,-122.44 76.57,-66.6 116.41,-72.97 176.04,-73.42 l 0.23,-0.03 c 1.56,0 3,0 4.51,0.01 1.52,-0.01 2.96,-0.01 4.51,-0.01 l 0.22,0.03 c 59.65,0.45 99.49,6.82 176.05,73.42 80.47,69.96 108.55,87.44 136.55,122.44 27.98,34.98 52.48,167.93 52.48,167.93 l -0.24,0.24 c 0.29,1.52 0.43,2.38 0.43,2.38 0,0 11.1,48.36 11.1,228.67"
         style="fill:#ffba7f;fill-opacity:1;fill-rule:nonzero;stroke:none"
         id="path2028" /><path
         d="m 4936.31,4469.66 0.22,0.03 c 59.65,0.45 99.49,6.82 176.05,73.42 80.47,69.96 108.55,87.44 136.55,122.44 27.98,34.98 52.48,167.93 52.48,167.93 l -0.24,0.24 c 0.29,1.52 0.43,2.38 0.43,2.38 0,0 11.1,48.36 11.1,228.67 0,180.3 -4.05,304.24 -139.27,416.9 -65,54.16 -153.73,81.21 -242.42,81.17 V 4469.67 h 0.59 c 1.52,-0.01 2.96,-0.01 4.51,-0.01"
         style="fill:#fcaf75;fill-opacity:1;fill-rule:nonzero;stroke:none"
         id="path2030" /><path
         d="m 5036.09,5610.44 c -170.42,39.35 -264.91,-26.49 -264.91,-26.49 0,0 -25.06,20.04 -5.76,45.82 -47.25,-6.43 -60.16,-55.11 -75.21,-92.39 -47.19,15.03 -85.19,-5.01 -85.19,-5.01 0,0 38,-29.32 -2.88,-63.03 -102.18,-84.29 -69.96,-181.01 -61.79,-200.97 0.08,-116.16 2.92,-290.09 18.55,-277.48 12.9,10.37 34.77,107.61 54.77,199.63 70.67,73.21 125.44,114.18 137.82,171.83 0,0 79.91,-103.47 187.59,-127.81 88.79,-20.11 198.66,-37.29 245.27,-27.97 -40.12,40.12 -51.59,116 -51.59,116 0,0 62.04,-113.62 120.43,-123.55 20.07,-97.61 42.8,-207.23 53.6,-216.31 15.68,-13.19 17.17,182.55 16.81,285.65 58.22,180.98 -166.89,314.23 -287.51,342.08"
         style="fill:#683c11;fill-opacity:1;fill-rule:nonzero;stroke:none"
         id="path2032" /><path
         d="m 5111.13,5131.69 c -51.34,0.51 -85.44,-43.3 -99.19,-61.43 -13.76,-18.12 56.61,12.97 103.3,16.45 52.58,3.9 131.42,-30.78 131.42,-30.78 0,0 -62.79,75.03 -135.53,75.76"
         style="fill:#683c11;fill-opacity:1;fill-rule:nonzero;stroke:none"
         id="path2034" /><path
         d="m 4751.27,5132.1 c 51.35,0.51 85.46,-43.28 99.21,-61.43 13.73,-18.12 -56.61,12.97 -103.29,16.45 -52.62,3.92 -131.45,-30.78 -131.45,-30.78 0,0 62.79,75.04 135.53,75.76"
         style="fill:#683c11;fill-opacity:1;fill-rule:nonzero;stroke:none"
         id="path2036" /><path
         d="m 4810.42,4728.54 52.04,-1.4 71.89,-0.92 80.73,2.11 45.11,-4.89 -55.56,-75.91 h -135 l -58.97,75.93"
         style="fill:#b7522a;fill-opacity:1;fill-rule:nonzero;stroke:none"
         id="path2038" /><path
         d="m 4836.5,4724.87 c 0,0 -3.81,-28.89 99.92,-28.24 105.57,0.66 93.61,27.52 93.61,27.52 l -97.25,-0.94 -88.83,4.16"
         style="fill:#ffffff;fill-opacity:1;fill-rule:nonzero;stroke:none"
         id="path2040" /><path
         d="m 4800.9,4731.86 c 0,0 72.19,7.05 100.01,8.01 22.19,0.72 29.76,-7.87 38.53,-6.93 10.34,1.11 18.43,6.19 41.33,7.03 22.98,0.72 88.04,-11.21 88.04,-11.21 0,0 -6.05,-15.8 -132.47,-15.06 -116.88,0.7 -135.44,18.16 -135.44,18.16"
         style="fill:#e28156;fill-opacity:1;fill-rule:nonzero;stroke:none"
         id="path2042" /><path
         d="m 4859.64,4665.87 c 0,0 -2.64,-26.79 77.12,-26.33 81.16,0.47 71.71,25.39 71.71,25.39 0,0 -52.81,-5.09 -75.22,-5.09 -28.52,0 -67.89,8.31 -67.89,8.31"
         style="fill:#ffffff;fill-opacity:1;fill-rule:nonzero;stroke:none"
         id="path2044" /><path
         d="m 4810.42,4728.54 -9.52,3.32 c 0,0 42.3,-107.63 134.98,-106.85 105.08,0.93 132.93,103.75 132.93,103.75 l -8.62,-2.41 c 0,0 -42.4,-72.59 -124.35,-73.26 -71.99,-0.56 -125.42,75.45 -125.42,75.45"
         style="fill:#e28156;fill-opacity:1;fill-rule:nonzero;stroke:none"
         id="path2046" /><path
         d="m 4687.67,4983.82 c 0,0 9.8,48 58.98,48 47.77,0 58.92,-48 58.92,-48 0,0 -24.49,23 -58.92,23 -37.77,0 -58.98,-23 -58.98,-23"
         style="fill:#432918;fill-opacity:1;fill-rule:nonzero;stroke:none"
         id="path2048" /><path
         d="m 5174.74,4983.82 c 0,0 -9.8,48 -58.98,48 -47.77,0 -58.92,-48 -58.92,-48 0,0 24.49,23 58.92,23 37.77,0 58.98,-23 58.98,-23"
         style="fill:#432918;fill-opacity:1;fill-rule:nonzero;stroke:none"
         id="path2050" /><path
         d="m 2978.31,5846.64 c -507.64,0 -919.16,-411.53 -919.16,-919.17 0,-507.64 411.52,-919.16 919.16,-919.16 507.63,0 919.18,411.52 919.18,919.16 0,507.64 -411.55,919.17 -919.18,919.17"
         style="fill:#e4f2f2;fill-opacity:1;fill-rule:nonzero;stroke:none"
         id="path2052" /><path
         d="m 3577.66,4230.61 c -7.93,8.87 -16.01,16.26 -24.22,21.4 -81.33,50.9 -367.48,41.66 -393.63,124.92 -7.79,24.84 -10.92,56.29 -11.5,88.18 -1.33,74.97 11.5,152.43 11.5,152.43 l -181.5,54.86 -181.51,-54.86 c 0,0 13.19,-79.36 11.47,-155.2 -0.73,-30.92 -3.89,-61.27 -11.47,-85.41 -26.15,-83.26 -312.28,-74.02 -393.61,-124.92 -8.22,-5.15 -16.29,-12.53 -24.24,-21.4 160.94,-138.53 370.35,-222.3 599.36,-222.3 229,0 438.43,83.77 599.35,222.3"
         style="fill:#ffba7f;fill-opacity:1;fill-rule:nonzero;stroke:none"
         id="path2054" /><path
         d="m 2978.31,4700.17 -184.67,-54.1 c 0,0 16.35,-94.01 14.63,-169.84 32.65,-37.21 166.27,-41.86 167.79,-41.84 1.52,-0.02 137.62,6.95 172.25,44.59 -1.33,74.98 14.01,166.66 14.01,166.66 l -184.01,54.53"
         style="fill:#f2a068;fill-opacity:1;fill-rule:nonzero;stroke:none"
         id="path2056" /><path
         d="m 3577.66,4230.61 c -7.93,8.87 -16.01,16.26 -24.22,21.4 -62.01,38.83 -246.25,43.89 -340.33,80.46 l -237.05,-231.77 -224.63,235.16 -0.19,-0.02 c -90.28,-40.87 -283.52,-43.44 -348.05,-83.83 -8.22,-5.15 -16.29,-12.53 -24.24,-21.4 160.94,-138.53 370.35,-222.3 599.36,-222.3 229,0 438.43,83.77 599.35,222.3"
         style="fill:#db9837;fill-opacity:1;fill-rule:nonzero;stroke:none"
         id="path2058" /><path
         d="m 2641.86,5031.09 c 0,0 -52.79,73.87 -103.15,59.28 -50.35,-14.63 -38.71,-90.24 -38.71,-118.38 -0.06,-28.16 42.05,-127.75 70.28,-138.69 71.52,-27.76 71.58,76.52 71.58,76.52 v 121.27"
         style="fill:#ffba7f;fill-opacity:1;fill-rule:nonzero;stroke:none"
         id="path2060" /><path
         d="m 3420.07,5090.35 c -50.36,14.65 -103.21,-59.1 -103.21,-59.1 v -121.39 c 0,0 -0.13,-107.5 71.52,-76.58 27.72,12.01 70.33,110.62 70.4,138.71 0,28.1 11.66,103.75 -38.71,118.36"
         style="fill:#fcaf75;fill-opacity:1;fill-rule:nonzero;stroke:none"
         id="path2062" /><path
         d="m 3359.44,5062.5 c 0,180.29 -4.05,304.24 -139.27,416.89 -129.93,108.28 -354.76,108.22 -484.64,0 -135.18,-112.68 -139.27,-236.62 -139.27,-416.91 0,-180.3 12.27,-231.27 12.27,-231.27 0,0 24.49,-132.95 52.47,-167.93 27.99,-35 56.09,-52.48 136.55,-122.44 76.58,-66.6 116.42,-72.97 176.05,-73.42 l 0.23,-0.04 c 1.56,0 3,0 4.5,0.02 1.53,-0.02 2.96,-0.02 4.52,-0.02 l 0.22,0.04 c 59.65,0.45 99.48,6.82 176.05,73.42 80.46,69.96 108.55,87.44 136.55,122.44 27.98,34.98 52.48,167.93 52.48,167.93 l -0.24,0.24 c 0.29,1.52 0.42,2.38 0.42,2.38 0,0 11.11,48.35 11.11,228.67"
         style="fill:#ffba7f;fill-opacity:1;fill-rule:nonzero;stroke:none"
         id="path2064" /><path
         d="m 2982.85,4467.38 0.22,0.04 c 59.65,0.45 99.48,6.82 176.05,73.42 80.46,69.96 108.55,87.44 136.55,122.44 27.98,34.98 52.48,167.93 52.48,167.93 l -0.24,0.24 c 0.29,1.52 0.42,2.38 0.42,2.38 0,0 11.11,48.35 11.11,228.67 0,180.29 -4.05,304.24 -139.27,416.89 -65,54.16 -153.73,81.22 -242.42,81.18 V 4467.4 h 0.58 c 1.53,-0.02 2.96,-0.02 4.52,-0.02"
         style="fill:#fcaf75;fill-opacity:1;fill-rule:nonzero;stroke:none"
         id="path2066" /><path
         d="m 3082.63,5608.16 c -170.42,39.37 -264.91,-26.48 -264.91,-26.48 0,0 -25.06,20.03 -5.76,45.81 -47.25,-6.43 -60.16,-55.12 -75.22,-92.38 -47.18,15.02 -85.18,-5 -85.18,-5 0,0 38,-29.34 -2.88,-63.04 -102.18,-84.31 -69.96,-181.03 -61.79,-200.99 0.08,-116.15 2.92,-290.08 18.54,-277.48 12.9,10.37 34.78,107.63 54.78,199.63 70.66,73.22 125.44,114.18 137.82,171.84 0,0 79.9,-103.48 187.59,-127.82 88.79,-20.09 198.66,-37.27 245.26,-27.96 -40.11,40.12 -51.58,115.99 -51.58,115.99 0,0 62.04,-113.61 120.43,-123.53 20.07,-97.62 42.79,-207.23 53.6,-216.31 15.68,-13.21 17.17,182.55 16.81,285.64 58.21,181 -166.89,314.22 -287.51,342.08"
         style="fill:#683c11;fill-opacity:1;fill-rule:nonzero;stroke:none"
         id="path2068" /><path
         d="m 2857.53,4726.45 52.04,-1.4 71.89,-0.92 80.73,2.11 45.11,-4.89 -55.57,-75.91 h -135 l -58.96,75.93"
         style="fill:#b7522a;fill-opacity:1;fill-rule:nonzero;stroke:none"
         id="path2070" /><path
         d="m 2883.61,4722.78 c 0,0 -3.81,-28.89 99.92,-28.24 105.57,0.66 93.61,27.52 93.61,27.52 l -97.25,-0.94 -88.83,4.16"
         style="fill:#ffffff;fill-opacity:1;fill-rule:nonzero;stroke:none"
         id="path2072" /><path
         d="m 2848.01,4729.77 c 0,0 72.19,7.05 100.01,8.01 22.19,0.72 29.76,-7.87 38.53,-6.93 10.34,1.11 18.43,6.19 41.33,7.03 22.97,0.72 88.04,-11.21 88.04,-11.21 0,0 -6.05,-15.8 -132.47,-15.06 -116.88,0.7 -135.44,18.16 -135.44,18.16"
         style="fill:#e28156;fill-opacity:1;fill-rule:nonzero;stroke:none"
         id="path2074" /><path
         d="m 2906.74,4663.78 c 0,0 -2.63,-26.79 77.13,-26.33 81.16,0.47 71.71,25.39 71.71,25.39 0,0 -52.81,-5.09 -75.22,-5.09 -28.53,0 -67.89,8.31 -67.89,8.31"
         style="fill:#ffffff;fill-opacity:1;fill-rule:nonzero;stroke:none"
         id="path2076" /><path
         d="m 2857.53,4726.45 -9.52,3.32 c 0,0 42.3,-107.63 134.98,-106.85 105.08,0.93 132.93,103.75 132.93,103.75 l -8.62,-2.41 c 0,0 -42.4,-72.59 -124.35,-73.26 -71.99,-0.56 -125.42,75.45 -125.42,75.45"
         style="fill:#e28156;fill-opacity:1;fill-rule:nonzero;stroke:none"
         id="path2078" /><path
         d="m 2854.17,4992.31 c 0,-25.41 -20.6,-46.01 -46.02,-46.01 -25.41,0 -46.05,20.6 -46.05,46.01 0,25.45 20.64,46.04 46.05,46.04 25.42,0 46.02,-20.59 46.02,-46.04"
         style="fill:#683c11;fill-opacity:1;fill-rule:nonzero;stroke:none"
         id="path2080" /><path
         d="m 3158.25,5159.6 c -51.34,0.51 -85.44,-43.3 -99.19,-61.43 -13.76,-18.12 56.61,12.97 103.3,16.45 52.58,3.9 131.41,-30.78 131.41,-30.78 0,0 -62.78,75.04 -135.52,75.76"
         style="fill:#683c11;fill-opacity:1;fill-rule:nonzero;stroke:none"
         id="path2082" /><path
         d="m 3148.22,5038.35 c -25.45,0 -46.03,-20.59 -46.03,-46.04 0,-25.41 20.58,-46.01 46.03,-46.01 25.4,0 46.03,20.6 46.03,46.01 0,25.45 -20.63,46.04 -46.03,46.04"
         style="fill:#432918;fill-opacity:1;fill-rule:nonzero;stroke:none"
         id="path2084" /><path
         d="m 2798.39,5160.01 c 51.35,0.51 85.46,-43.28 99.21,-61.43 13.73,-18.12 -56.61,12.97 -103.29,16.45 -52.63,3.92 -131.45,-30.78 -131.45,-30.78 0,0 62.79,75.04 135.53,75.76"
         style="fill:#683c11;fill-opacity:1;fill-rule:nonzero;stroke:none"
         id="path2086" /><path
         d="m 2808.41,5038.78 c 25.47,0 46.03,-20.61 46.03,-46.04 0,-25.41 -20.56,-46.01 -46.03,-46.01 -25.4,0 -46.01,20.6 -46.01,46.01 0,25.43 20.61,46.04 46.01,46.04"
         style="fill:#432918;fill-opacity:1;fill-rule:nonzero;stroke:none"
         id="path2088" /><path
         d="m 1023.63,5848.91 c -507.638,0 -919.161,-411.52 -919.161,-919.16 0,-507.63 411.523,-919.16 919.161,-919.16 507.63,0 919.18,411.53 919.18,919.16 0,507.64 -411.55,919.16 -919.18,919.16"
         style="fill:#e4f2f2;fill-opacity:1;fill-rule:nonzero;stroke:none"
         id="path2090" /><path
         d="m 1622.98,4232.9 c -7.93,8.86 -16.01,16.25 -24.22,21.38 -81.32,50.9 -367.48,41.66 -393.63,124.93 -7.79,24.84 -10.92,56.29 -11.5,88.18 -1.33,74.96 11.5,152.42 11.5,152.42 l -181.5,54.86 -181.505,-54.86 c 0,0 13.184,-79.35 11.465,-155.19 -0.723,-30.92 -3.887,-61.27 -11.465,-85.41 -26.152,-83.27 -312.285,-74.03 -393.613,-124.93 -8.223,-5.13 -16.289,-12.52 -24.239,-21.38 160.938,-138.54 370.352,-222.31 599.357,-222.31 229,0 438.44,83.77 599.35,222.31"
         style="fill:#ffba7f;fill-opacity:1;fill-rule:nonzero;stroke:none"
         id="path2092" /><path
         d="m 1023.63,4702.45 -184.669,-54.1 c 0,0 16.348,-94.02 14.629,-169.85 32.656,-37.2 166.27,-41.85 167.79,-41.83 1.53,-0.02 137.62,6.95 172.25,44.59 -1.33,74.98 14.02,166.66 14.02,166.66 l -184.02,54.53"
         style="fill:#f2a068;fill-opacity:1;fill-rule:nonzero;stroke:none"
         id="path2094" /><path
         d="m 1622.98,4232.9 c -7.93,8.86 -16.01,16.25 -24.22,21.38 -62.01,38.83 -246.25,43.89 -340.33,80.46 l -237.05,-231.76 -224.626,235.15 -0.195,-0.02 c -90.274,-40.87 -283.516,-43.44 -348.047,-83.83 -8.223,-5.13 -16.289,-12.52 -24.239,-21.38 160.938,-138.54 370.352,-222.31 599.357,-222.31 229,0 438.44,83.77 599.35,222.31"
         style="fill:#db9837;fill-opacity:1;fill-rule:nonzero;stroke:none"
         id="path2096" /><path
         d="m 687.184,5033.37 c 0,0 -52.793,73.86 -103.157,59.27 -50.339,-14.62 -38.711,-90.23 -38.711,-118.37 -0.058,-28.17 42.051,-127.76 70.286,-138.7 71.523,-27.75 71.582,76.53 71.582,76.53 v 121.27"
         style="fill:#ffba7f;fill-opacity:1;fill-rule:nonzero;stroke:none"
         id="path2098" /><path
         d="m 1465.4,5092.63 c -50.37,14.64 -103.22,-59.11 -103.22,-59.11 v -121.38 c 0,0 -0.12,-107.5 71.53,-76.59 27.71,12.02 70.32,110.63 70.4,138.72 0,28.1 11.66,103.75 -38.71,118.36"
         style="fill:#fcaf75;fill-opacity:1;fill-rule:nonzero;stroke:none"
         id="path2100" /><path
         d="m 1404.76,5064.77 c 0,180.3 -4.05,304.24 -139.27,416.9 -129.93,108.28 -354.763,108.22 -484.635,0 -135.187,-112.68 -139.269,-236.62 -139.269,-416.92 0,-180.29 12.266,-231.27 12.266,-231.27 0,0 24.492,-132.95 52.472,-167.93 27.989,-35 56.094,-52.48 136.551,-122.44 76.574,-66.6 116.418,-72.97 176.045,-73.42 l 0.24,-0.03 c 1.55,0 2.99,0 4.5,0.01 1.52,-0.01 2.96,-0.01 4.51,-0.01 l 0.22,0.03 c 59.65,0.45 99.49,6.82 176.05,73.42 80.47,69.96 108.55,87.44 136.55,122.44 27.98,34.98 52.48,167.93 52.48,167.93 l -0.24,0.25 c 0.29,1.51 0.43,2.37 0.43,2.37 0,0 11.1,48.36 11.1,228.67"
         style="fill:#ffba7f;fill-opacity:1;fill-rule:nonzero;stroke:none"
         id="path2102" /><path
         d="m 1028.17,4469.66 0.22,0.03 c 59.65,0.45 99.49,6.82 176.05,73.42 80.47,69.96 108.55,87.44 136.55,122.44 27.98,34.98 52.48,167.93 52.48,167.93 l -0.24,0.25 c 0.29,1.51 0.43,2.37 0.43,2.37 0,0 11.1,48.36 11.1,228.67 0,180.3 -4.05,304.24 -139.27,416.9 -65,54.16 -153.73,81.22 -242.42,81.17 V 4469.67 h 0.59 c 1.52,-0.01 2.96,-0.01 4.51,-0.01"
         style="fill:#fcaf75;fill-opacity:1;fill-rule:nonzero;stroke:none"
         id="path2104" /><path
         d="m 1127.95,5610.44 c -170.415,39.36 -264.907,-26.49 -264.907,-26.49 0,0 -25.059,20.04 -5.762,45.82 -47.246,-6.42 -60.156,-55.11 -75.215,-92.38 -47.187,15.02 -85.187,-5.01 -85.187,-5.01 0,0 38,-29.33 -2.879,-63.04 -102.18,-84.29 -69.961,-181.01 -61.789,-200.97 0.078,-116.16 2.922,-290.08 18.547,-277.48 12.898,10.37 34.773,107.61 54.773,199.63 70.664,73.22 125.442,114.18 137.824,171.83 0,0 79.903,-103.47 187.585,-127.81 88.79,-20.1 198.66,-37.29 245.27,-27.97 -40.12,40.12 -51.59,116 -51.59,116 0,0 62.05,-113.62 120.43,-123.54 20.07,-97.62 42.8,-207.24 53.6,-216.31 15.68,-13.2 17.18,182.54 16.81,285.65 58.22,180.99 -166.89,314.22 -287.51,342.07"
         style="fill:#683c11;fill-opacity:1;fill-rule:nonzero;stroke:none"
         id="path2106" /><path
         d="m 898.563,4994.63 c 0,-25.42 -20.602,-46.02 -46.024,-46.02 -25.41,0 -46.047,20.6 -46.047,46.02 0,25.44 20.637,46.03 46.047,46.03 25.422,0 46.024,-20.59 46.024,-46.03"
         style="fill:#683c11;fill-opacity:1;fill-rule:nonzero;stroke:none"
         id="path2108" /><path
         d="m 1202.64,5131.91 c -51.34,0.51 -85.44,-43.3 -99.19,-61.42 -13.76,-18.13 56.61,12.96 103.3,16.44 52.58,3.91 131.41,-30.78 131.41,-30.78 0,0 -62.78,75.04 -135.52,75.76"
         style="fill:#683c11;fill-opacity:1;fill-rule:nonzero;stroke:none"
         id="path2110" /><path
         d="m 1192.61,5040.66 c -25.45,0 -46.03,-20.59 -46.03,-46.03 0,-25.42 20.58,-46.02 46.03,-46.02 25.4,0 46.03,20.6 46.03,46.02 0,25.44 -20.63,46.03 -46.03,46.03"
         style="fill:#432918;fill-opacity:1;fill-rule:nonzero;stroke:none"
         id="path2112" /><path
         d="m 842.781,5132.32 c 51.352,0.51 85.461,-43.28 99.211,-61.42 13.731,-18.13 -56.609,12.96 -103.293,16.44 -52.625,3.93 -131.453,-30.78 -131.453,-30.78 0,0 62.793,75.04 135.535,75.76"
         style="fill:#683c11;fill-opacity:1;fill-rule:nonzero;stroke:none"
         id="path2114" /><path
         d="m 852.805,5041.09 c 25.465,0 46.023,-20.6 46.023,-46.04 0,-25.4 -20.558,-46.01 -46.023,-46.01 -25.403,0 -46.02,20.61 -46.02,46.01 0,25.44 20.617,46.04 46.02,46.04"
         style="fill:#432918;fill-opacity:1;fill-rule:nonzero;stroke:none"
         id="path2116" /><path
         d="m 901.934,4738.77 52.031,-1.41 71.895,-0.91 80.73,2.1 45.11,-4.88 -60.12,-60.16 -127.908,10.53 -61.504,49.65"
         style="fill:#ffffff;fill-opacity:1;fill-rule:nonzero;stroke:none"
         id="path2118" /><path
         d="m 928.008,4735.09 c 0,0 -3.809,-28.88 99.922,-28.23 105.57,0.66 93.61,27.51 93.61,27.51 l -97.25,-0.94 -88.829,4.16"
         style="fill:#ffffff;fill-opacity:1;fill-rule:nonzero;stroke:none"
         id="path2120" /><path
         d="m 892.41,4742.09 c 0,0 72.192,7.05 100.012,8 22.188,0.73 29.758,-7.87 38.528,-6.93 10.34,1.11 18.43,6.2 41.33,7.04 22.97,0.72 88.04,-11.22 88.04,-11.22 0,0 -6.05,-15.8 -132.47,-15.06 -116.881,0.71 -135.44,18.17 -135.44,18.17"
         style="fill:#e28156;fill-opacity:1;fill-rule:nonzero;stroke:none"
         id="path2122" /><path
         d="m 907.02,4736.99 -14.61,5.1 c 0,0 42.297,-87.64 134.98,-86.86 105.08,0.94 132.93,83.75 132.93,83.75 l -13.9,-4.59 c 0,0 -37.12,-50.41 -119.07,-51.07 -71.991,-0.57 -120.33,53.67 -120.33,53.67"
         style="fill:#e28156;fill-opacity:1;fill-rule:nonzero;stroke:none"
         id="path2124" /><path
         d="m 1014.03,3894.85 c -507.635,0 -919.1589,-411.54 -919.1589,-919.18 0,-507.64 411.5239,-919.16 919.1589,-919.16 507.64,0 919.18,411.52 919.18,919.16 0,507.64 -411.54,919.18 -919.18,919.18"
         style="fill:#e4f2f2;fill-opacity:1;fill-rule:nonzero;stroke:none"
         id="path2126" /><path
         d="m 1613.39,2278.82 c -7.93,8.86 -16.02,16.27 -24.22,21.4 -81.33,50.9 -367.48,41.66 -393.63,124.92 -7.8,24.85 -10.92,56.29 -11.51,88.19 -1.32,74.96 11.51,152.42 11.51,152.42 l -181.51,54.86 -181.503,-54.86 c 0,0 13.188,-79.36 11.465,-155.2 -0.722,-30.91 -3.887,-61.27 -11.465,-85.41 -26.148,-83.26 -312.285,-74.02 -393.609,-124.92 -8.227,-5.15 -16.289,-12.54 -24.238,-21.4 160.933,-138.54 370.347,-222.31 599.35,-222.31 229.01,0 438.44,83.77 599.36,222.31"
         style="fill:#ffba7f;fill-opacity:1;fill-rule:nonzero;stroke:none"
         id="path2128" /><path
         d="m 1014.03,2748.39 -184.667,-54.11 c 0,0 16.352,-94.02 14.629,-169.84 32.656,-37.21 166.268,-41.85 167.798,-41.84 1.52,-0.01 137.61,6.96 172.24,44.59 -1.32,74.98 14.02,166.66 14.02,166.66 l -184.02,54.54"
         style="fill:#f2a068;fill-opacity:1;fill-rule:nonzero;stroke:none"
         id="path2130" /><path
         d="m 1613.39,2278.82 c -7.93,8.86 -16.02,16.27 -24.22,21.4 -62.01,38.83 -246.25,43.89 -340.33,80.45 l -237.05,-231.76 -224.634,235.16 -0.191,-0.02 c -90.277,-40.88 -283.52,-43.44 -348.047,-83.83 -8.227,-5.15 -16.289,-12.54 -24.238,-21.4 160.933,-138.54 370.347,-222.31 599.35,-222.31 229.01,0 438.44,83.77 599.36,222.31"
         style="fill:#db9837;fill-opacity:1;fill-rule:nonzero;stroke:none"
         id="path2132" /><path
         d="m 677.59,3079.3 c 0,0 -52.793,73.87 -103.156,59.28 -50.34,-14.63 -38.711,-90.23 -38.711,-118.38 -0.059,-28.16 42.05,-127.75 70.285,-138.69 71.519,-27.75 71.582,76.52 71.582,76.52 v 121.27"
         style="fill:#ffba7f;fill-opacity:1;fill-rule:nonzero;stroke:none"
         id="path2134" /><path
         d="m 1455.8,3138.56 c -50.36,14.65 -103.21,-59.1 -103.21,-59.1 v -121.39 c 0,0 -0.13,-107.5 71.52,-76.58 27.72,12.01 70.32,110.63 70.4,138.71 0,28.11 11.66,103.75 -38.71,118.36"
         style="fill:#fcaf75;fill-opacity:1;fill-rule:nonzero;stroke:none"
         id="path2136" /><path
         d="m 1395.17,3110.71 c 0,180.29 -4.06,304.24 -139.27,416.89 -129.93,108.29 -354.767,108.23 -484.638,0 -135.188,-112.67 -139.27,-236.62 -139.27,-416.91 0,-180.29 12.266,-231.27 12.266,-231.27 0,0 24.492,-132.95 52.472,-167.93 27.989,-35 56.09,-52.48 136.551,-122.44 76.574,-66.6 116.414,-72.97 176.049,-73.42 l 0.23,-0.04 c 1.55,0 3,0 4.5,0.02 1.53,-0.02 2.96,-0.02 4.51,-0.02 l 0.23,0.04 c 59.65,0.45 99.48,6.82 176.04,73.42 80.47,69.96 108.56,87.44 136.56,122.44 27.98,34.98 52.48,167.93 52.48,167.93 l -0.25,0.24 c 0.3,1.52 0.43,2.38 0.43,2.38 0,0 11.11,48.36 11.11,228.67"
         style="fill:#ffba7f;fill-opacity:1;fill-rule:nonzero;stroke:none"
         id="path2138" /><path
         d="m 1018.57,2515.59 0.23,0.04 c 59.65,0.45 99.48,6.82 176.04,73.42 80.47,69.96 108.56,87.44 136.56,122.44 27.98,34.98 52.48,167.93 52.48,167.93 l -0.25,0.24 c 0.3,1.52 0.43,2.38 0.43,2.38 0,0 11.11,48.36 11.11,228.67 0,180.29 -4.06,304.24 -139.27,416.89 -65,54.16 -153.73,81.22 -242.42,81.18 V 2515.61 h 0.58 c 1.53,-0.02 2.96,-0.02 4.51,-0.02"
         style="fill:#fcaf75;fill-opacity:1;fill-rule:nonzero;stroke:none"
         id="path2140" /><path
         d="m 1118.36,3656.37 c -170.422,39.36 -264.915,-26.48 -264.915,-26.48 0,0 -25.054,20.03 -5.757,45.81 -47.25,-6.44 -60.161,-55.12 -75.215,-92.39 -47.192,15.04 -85.188,-5 -85.188,-5 0,0 37.996,-29.33 -2.883,-63.03 -102.175,-84.31 -69.961,-181.02 -61.785,-200.99 0.078,-116.15 2.918,-290.08 18.543,-277.48 12.903,10.37 34.778,107.63 54.778,199.63 70.664,73.22 125.441,114.18 137.824,171.85 0,0 79.898,-103.49 187.588,-127.82 88.79,-20.1 198.66,-37.28 245.26,-27.96 -40.12,40.11 -51.58,115.98 -51.58,115.98 0,0 62.04,-113.61 120.43,-123.54 20.07,-97.61 42.79,-207.23 53.59,-216.31 15.69,-13.19 17.18,182.56 16.82,285.64 58.21,181 -166.9,314.23 -287.51,342.09"
         style="fill:#683c11;fill-opacity:1;fill-rule:nonzero;stroke:none"
         id="path2142" /><path
         d="m 889.176,3040.57 c 0,-25.41 -20.606,-46.01 -46.028,-46.01 -25.41,0 -46.043,20.6 -46.043,46.01 0,25.45 20.633,46.04 46.043,46.04 25.422,0 46.028,-20.59 46.028,-46.04"
         style="fill:#683c11;fill-opacity:1;fill-rule:nonzero;stroke:none"
         id="path2144" /><path
         d="m 1193.25,3207.86 c -51.34,0.51 -85.44,-43.3 -99.19,-61.43 -13.76,-18.12 56.61,12.97 103.3,16.45 52.59,3.9 131.41,-30.78 131.41,-30.78 0,0 -62.78,75.04 -135.52,75.76"
         style="fill:#683c11;fill-opacity:1;fill-rule:nonzero;stroke:none"
         id="path2146" /><path
         d="m 1183.22,3086.61 c -25.45,0 -46.03,-20.59 -46.03,-46.04 0,-25.41 20.58,-46.01 46.03,-46.01 25.4,0 46.03,20.6 46.03,46.01 0,25.45 -20.63,46.04 -46.03,46.04"
         style="fill:#432918;fill-opacity:1;fill-rule:nonzero;stroke:none"
         id="path2148" /><path
         d="m 833.395,3208.27 c 51.347,0.51 85.457,-43.28 99.207,-61.43 13.73,-18.12 -56.61,12.97 -103.289,16.45 -52.629,3.92 -131.446,-30.78 -131.446,-30.78 0,0 62.781,75.04 135.528,75.76"
         style="fill:#683c11;fill-opacity:1;fill-rule:nonzero;stroke:none"
         id="path2150" /><path
         d="m 843.414,3087.04 c 25.469,0 46.024,-20.61 46.024,-46.04 0,-25.41 -20.555,-46.01 -46.024,-46.01 -25.402,0 -46.016,20.6 -46.016,46.01 0,25.43 20.614,46.04 46.016,46.04"
         style="fill:#432918;fill-opacity:1;fill-rule:nonzero;stroke:none"
         id="path2152" /><path
         d="m 904.477,2768.42 55.07,27.39 59.663,5.82 71.8,-5.82 42.81,-33.28 -53.82,-70.04 H 961.598 l -50.196,64.31"
         style="fill:#b7522a;fill-opacity:1;fill-rule:nonzero;stroke:none"
         id="path2154" /><path
         d="m 939.156,2794.94 c 0,0 -37.832,-20.38 77.364,-23.19 117.58,-2.88 78.15,22.69 78.15,22.69 l -81.77,6.03 -60.279,-0.09"
         style="fill:#ffffff;fill-opacity:1;fill-rule:nonzero;stroke:none"
         id="path2156" /><path
         d="m 938.531,2711.18 c 0,0 -2.402,-31.24 83.609,-29.58 87.54,1.67 76.93,30.57 76.93,30.57 0,0 -56.87,-6.66 -81.04,-6.98 -30.768,-0.4 -73.366,8.74 -73.366,8.74"
         style="fill:#ffffff;fill-opacity:1;fill-rule:nonzero;stroke:none"
         id="path2158" /><path
         d="m 901.625,2765.87 c 32.414,28.43 54.375,50.11 82.188,51.15 22.207,0.78 23.937,-5.88 32.727,-4.85 10.33,1.2 14.72,4.07 37.64,4.97 22.99,0.78 56.04,-32.29 83.05,-54.61 -32.82,3.34 -35.1,29.96 -121.75,30.33 -83.914,0.37 -77.839,-26.99 -113.855,-26.99"
         style="fill:#e28156;fill-opacity:1;fill-rule:nonzero;stroke:none"
         id="path2160" /><path
         d="m 909.488,2765.87 h -7.863 c 0,0 19.094,-98.1 111.805,-97.23 105.11,1 123.8,93.89 123.8,93.89 l -6.1,1.57 c 0,0 -34.7,-67.41 -116.66,-68.12 -71.986,-0.62 -104.982,69.89 -104.982,69.89"
         style="fill:#e28156;fill-opacity:1;fill-rule:nonzero;stroke:none"
         id="path2162" /><path
         d="m 2972.36,3894.85 c -507.64,0 -919.16,-411.54 -919.16,-919.18 0,-507.64 411.52,-919.16 919.16,-919.16 507.64,0 919.18,411.52 919.18,919.16 0,507.64 -411.54,919.18 -919.18,919.18"
         style="fill:#e4f2f2;fill-opacity:1;fill-rule:nonzero;stroke:none"
         id="path2164" /><path
         d="m 3571.71,2278.82 c -7.93,8.86 -16.01,16.27 -24.21,21.4 -81.33,50.9 -367.49,41.66 -393.64,124.92 -7.79,24.85 -10.92,56.29 -11.5,88.19 -1.33,74.96 11.5,152.42 11.5,152.42 l -181.5,54.86 -181.51,-54.86 c 0,0 13.19,-79.36 11.47,-155.2 -0.72,-30.91 -3.89,-61.27 -11.47,-85.41 -26.15,-83.26 -312.28,-74.02 -393.61,-124.92 -8.22,-5.15 -16.29,-12.54 -24.24,-21.4 160.94,-138.54 370.35,-222.31 599.36,-222.31 229,0 438.44,83.77 599.35,222.31"
         style="fill:#ffba7f;fill-opacity:1;fill-rule:nonzero;stroke:none"
         id="path2166" /><path
         d="m 2972.36,2748.39 -184.67,-54.11 c 0,0 16.35,-94.02 14.63,-169.84 32.66,-37.21 166.27,-41.85 167.79,-41.84 1.53,-0.01 137.62,6.96 172.25,44.59 -1.33,74.98 14.02,166.66 14.02,166.66 l -184.02,54.54"
         style="fill:#f2a068;fill-opacity:1;fill-rule:nonzero;stroke:none"
         id="path2168" /><path
         d="m 3571.71,2278.82 c -7.93,8.86 -16.01,16.27 -24.21,21.4 -62.02,38.83 -246.25,43.89 -340.34,80.45 l -237.05,-231.76 -224.63,235.16 -0.19,-0.02 c -90.28,-40.88 -283.52,-43.44 -348.05,-83.83 -8.22,-5.15 -16.29,-12.54 -24.24,-21.4 160.94,-138.54 370.35,-222.31 599.36,-222.31 229,0 438.44,83.77 599.35,222.31"
         style="fill:#db9837;fill-opacity:1;fill-rule:nonzero;stroke:none"
         id="path2170" /><path
         d="m 2635.91,3079.3 c 0,0 -52.79,73.87 -103.15,59.28 -50.34,-14.63 -38.71,-90.23 -38.71,-118.38 -0.06,-28.16 42.05,-127.75 70.28,-138.69 71.52,-27.75 71.58,76.52 71.58,76.52 v 121.27"
         style="fill:#ffba7f;fill-opacity:1;fill-rule:nonzero;stroke:none"
         id="path2172" /><path
         d="m 3414.13,3138.56 c -50.37,14.65 -103.22,-59.1 -103.22,-59.1 v -121.39 c 0,0 -0.12,-107.5 71.53,-76.58 27.71,12.01 70.32,110.63 70.4,138.71 0,28.11 11.66,103.75 -38.71,118.36"
         style="fill:#fcaf75;fill-opacity:1;fill-rule:nonzero;stroke:none"
         id="path2174" /><path
         d="m 3353.49,3110.71 c 0,180.29 -4.05,304.24 -139.27,416.89 -129.93,108.29 -354.76,108.23 -484.64,0 -135.18,-112.67 -139.26,-236.62 -139.26,-416.91 0,-180.29 12.26,-231.27 12.26,-231.27 0,0 24.5,-132.95 52.47,-167.93 27.99,-35 56.1,-52.48 136.56,-122.44 76.57,-66.6 116.41,-72.97 176.04,-73.42 l 0.24,-0.04 c 1.55,0 2.99,0 4.5,0.02 1.52,-0.02 2.96,-0.02 4.51,-0.02 l 0.22,0.04 c 59.65,0.45 99.49,6.82 176.05,73.42 80.47,69.96 108.55,87.44 136.55,122.44 27.98,34.98 52.48,167.93 52.48,167.93 l -0.24,0.24 c 0.29,1.52 0.43,2.38 0.43,2.38 0,0 11.1,48.36 11.1,228.67"
         style="fill:#ffba7f;fill-opacity:1;fill-rule:nonzero;stroke:none"
         id="path2176" /><path
         d="m 2976.9,2515.59 0.22,0.04 c 59.65,0.45 99.49,6.82 176.05,73.42 80.47,69.96 108.55,87.44 136.55,122.44 27.98,34.98 52.48,167.93 52.48,167.93 l -0.24,0.24 c 0.29,1.52 0.43,2.38 0.43,2.38 0,0 11.1,48.36 11.1,228.67 0,180.29 -4.05,304.24 -139.27,416.89 -65,54.16 -153.73,81.22 -242.42,81.18 V 2515.61 h 0.59 c 1.52,-0.02 2.96,-0.02 4.51,-0.02"
         style="fill:#fcaf75;fill-opacity:1;fill-rule:nonzero;stroke:none"
         id="path2178" /><path
         d="m 3076.68,3656.37 c -170.42,39.36 -264.91,-26.48 -264.91,-26.48 0,0 -25.06,20.03 -5.76,45.81 -47.25,-6.44 -60.16,-55.12 -75.21,-92.39 -47.19,15.04 -85.19,-5 -85.19,-5 0,0 38,-29.33 -2.88,-63.03 -102.18,-84.31 -69.96,-181.02 -61.79,-200.99 0.08,-116.15 2.92,-290.08 18.55,-277.48 12.9,10.37 34.77,107.63 54.77,199.63 70.67,73.22 125.44,114.18 137.82,171.85 0,0 79.91,-103.49 187.59,-127.82 88.79,-20.1 198.66,-37.28 245.27,-27.96 -40.12,40.11 -51.59,115.98 -51.59,115.98 0,0 62.05,-113.61 120.43,-123.54 20.07,-97.61 42.8,-207.23 53.6,-216.31 15.68,-13.19 17.18,182.56 16.81,285.64 58.22,181 -166.89,314.23 -287.51,342.09"
         style="fill:#683c11;fill-opacity:1;fill-rule:nonzero;stroke:none"
         id="path2180" /><path
         d="m 2847.5,3040.28 c 0,-25.41 -20.6,-46.02 -46.02,-46.02 -25.41,0 -46.05,20.61 -46.05,46.02 0,25.45 20.64,46.04 46.05,46.04 25.42,0 46.02,-20.59 46.02,-46.04"
         style="fill:#683c11;fill-opacity:1;fill-rule:nonzero;stroke:none"
         id="path2182" /><path
         d="m 2791.72,3177.98 c 51.35,0.5 85.46,-43.29 99.21,-61.43 13.73,-18.13 -56.61,12.97 -103.29,16.45 -52.63,3.92 -131.45,-30.79 -131.45,-30.79 0,0 62.79,75.04 135.53,75.77"
         style="fill:#683c11;fill-opacity:1;fill-rule:nonzero;stroke:none"
         id="path2184" /><path
         d="m 2801.74,3086.75 c 25.47,0 46.03,-20.61 46.03,-46.04 0,-25.41 -20.56,-46.02 -46.03,-46.02 -25.4,0 -46.01,20.61 -46.01,46.02 0,25.43 20.61,46.04 46.01,46.04"
         style="fill:#432918;fill-opacity:1;fill-rule:nonzero;stroke:none"
         id="path2186" /><path
         d="m 2850.87,2784.42 52.04,-1.41 71.89,-0.91 80.73,2.11 45.11,-4.89 -60.12,-60.15 -127.91,10.52 -61.5,49.65"
         style="fill:#ffffff;fill-opacity:1;fill-rule:nonzero;stroke:none"
         id="path2188" /><path
         d="m 2876.95,2780.75 c 0,0 -3.81,-28.89 99.92,-28.24 105.57,0.66 93.61,27.52 93.61,27.52 l -97.25,-0.94 -88.83,4.16"
         style="fill:#ffffff;fill-opacity:1;fill-rule:nonzero;stroke:none"
         id="path2190" /><path
         d="m 2841.35,2787.74 c 0,0 72.19,7.05 100.01,8.01 22.19,0.72 29.76,-7.87 38.53,-6.93 10.34,1.11 18.43,6.19 41.33,7.03 22.97,0.72 88.04,-11.21 88.04,-11.21 0,0 -6.05,-15.8 -132.47,-15.06 -116.88,0.7 -135.44,18.16 -135.44,18.16"
         style="fill:#e28156;fill-opacity:1;fill-rule:nonzero;stroke:none"
         id="path2192" /><path
         d="m 2855.96,2782.64 -14.61,5.1 c 0,0 42.3,-87.64 134.98,-86.85 105.08,0.93 132.93,83.75 132.93,83.75 l -13.9,-4.59 c 0,0 -37.12,-50.41 -119.07,-51.08 -71.99,-0.56 -120.33,53.67 -120.33,53.67"
         style="fill:#e28156;fill-opacity:1;fill-rule:nonzero;stroke:none"
         id="path2194" /><path
         d="m 3151.58,3177.98 c -51.34,0.5 -85.44,-43.31 -99.19,-61.43 -13.76,-18.13 56.61,12.97 103.3,16.45 52.58,3.9 131.41,-30.79 131.41,-30.79 0,0 -62.78,75.04 -135.52,75.77"
         style="fill:#683c11;fill-opacity:1;fill-rule:nonzero;stroke:none"
         id="path2196" /><path
         d="m 3215.18,3030.1 c 0,0 -9.79,48.01 -58.97,48.01 -47.78,0 -58.92,-48.01 -58.92,-48.01 0,0 24.48,23.01 58.92,23.01 37.76,0 58.97,-23.01 58.97,-23.01"
         style="fill:#432918;fill-opacity:1;fill-rule:nonzero;stroke:none"
         id="path2198" /><path
         d="m 1018.1,1940.8 c -507.635,0 -919.1586,-411.54 -919.1586,-919.17 0,-507.638 411.5236,-919.161 919.1586,-919.161 507.64,0 919.18,411.523 919.18,919.161 0,507.63 -411.54,919.17 -919.18,919.17"
         style="fill:#e4f2f2;fill-opacity:1;fill-rule:nonzero;stroke:none"
         id="path2200" /><path
         d="m 1617.46,324.77 c -7.93,8.871 -16.02,16.261 -24.22,21.402 -81.33,50.898 -367.48,41.66 -393.64,124.918 -7.79,24.84 -10.91,56.289 -11.5,88.18 -1.33,74.972 11.5,152.429 11.5,152.429 l -181.5,54.86 -181.502,-54.86 c 0,0 13.183,-79.359 11.465,-155.199 -0.723,-30.918 -3.887,-61.27 -11.465,-85.41 C 810.445,387.832 524.313,397.07 442.984,346.172 434.762,341.02 426.695,333.641 418.746,324.77 579.684,186.242 789.098,102.469 1018.1,102.469 c 229,0 438.44,83.773 599.36,222.301"
         style="fill:#ffba7f;fill-opacity:1;fill-rule:nonzero;stroke:none"
         id="path2202" /><path
         d="M 1018.1,794.332 833.434,740.23 c 0,0 16.347,-94.011 14.629,-169.839 32.656,-37.211 166.267,-41.86 167.787,-41.84 1.53,-0.02 137.62,6.961 172.25,44.59 -1.33,74.98 14.02,166.66 14.02,166.66 l -184.02,54.531"
         style="fill:#f2a068;fill-opacity:1;fill-rule:nonzero;stroke:none"
         id="path2204" /><path
         d="m 1617.46,324.77 c -7.93,8.871 -16.02,16.261 -24.22,21.402 -62.01,38.828 -246.25,43.891 -340.33,80.457 L 1015.85,194.859 791.227,430.02 791.031,430 C 700.758,389.129 507.516,386.559 442.984,346.172 434.762,341.02 426.695,333.641 418.746,324.77 579.684,186.242 789.098,102.469 1018.1,102.469 c 229,0 438.44,83.773 599.36,222.301"
         style="fill:#db9837;fill-opacity:1;fill-rule:nonzero;stroke:none"
         id="path2206" /><path
         d="m 681.656,1125.25 c 0,0 -52.793,73.87 -103.156,59.28 -50.34,-14.63 -38.711,-90.24 -38.711,-118.38 -0.059,-28.16 42.051,-127.748 70.285,-138.689 71.524,-27.762 71.582,76.519 71.582,76.519 v 121.27"
         style="fill:#ffba7f;fill-opacity:1;fill-rule:nonzero;stroke:none"
         id="path2208" /><path
         d="m 1459.87,1184.51 c -50.36,14.65 -103.21,-59.1 -103.21,-59.1 v -121.39 c 0,0 -0.13,-107.5 71.52,-76.579 27.71,12.008 70.32,110.619 70.4,138.709 0,28.11 11.66,103.75 -38.71,118.36"
         style="fill:#fcaf75;fill-opacity:1;fill-rule:nonzero;stroke:none"
         id="path2210" /><path
         d="m 1399.23,1156.66 c 0,180.29 -4.05,304.24 -139.26,416.89 -129.94,108.28 -354.771,108.22 -484.642,0 -135.187,-112.67 -139.269,-236.62 -139.269,-416.91 0,-180.3 12.265,-231.269 12.265,-231.269 0,0 24.492,-132.949 52.473,-167.93 27.988,-35 56.094,-52.48 136.551,-122.441 76.574,-66.598 116.418,-72.969 176.042,-73.418 l 0.24,-0.043 c 1.55,0 3,0 4.5,0.02 1.52,-0.02 2.96,-0.02 4.51,-0.02 l 0.23,0.043 c 59.64,0.449 99.48,6.82 176.04,73.418 80.47,69.961 108.56,87.441 136.55,122.441 27.98,34.981 52.48,167.93 52.48,167.93 l -0.24,0.238 c 0.29,1.52 0.43,2.383 0.43,2.383 0,0 11.1,48.348 11.1,228.668"
         style="fill:#ffba7f;fill-opacity:1;fill-rule:nonzero;stroke:none"
         id="path2212" /><path
         d="m 1022.64,561.539 0.23,0.043 c 59.64,0.449 99.48,6.82 176.04,73.418 80.47,69.961 108.56,87.441 136.55,122.441 27.98,34.981 52.48,167.93 52.48,167.93 l -0.24,0.238 c 0.29,1.52 0.43,2.383 0.43,2.383 0,0 11.1,48.348 11.1,228.668 0,180.29 -4.05,304.24 -139.26,416.89 -65,54.16 -153.73,81.22 -242.43,81.17 V 561.559 h 0.59 c 1.52,-0.02 2.96,-0.02 4.51,-0.02"
         style="fill:#fcaf75;fill-opacity:1;fill-rule:nonzero;stroke:none"
         id="path2214" /><path
         d="m 1122.43,1702.32 c -170.422,39.37 -264.914,-26.48 -264.914,-26.48 0,0 -25.059,20.04 -5.762,45.82 -47.246,-6.44 -60.156,-55.13 -75.215,-92.4 -47.187,15.03 -85.187,-5 -85.187,-5 0,0 38,-29.33 -2.879,-63.03 -102.18,-84.31 -69.961,-181.03 -61.789,-200.99 0.078,-116.15 2.921,-290.08 18.546,-277.48 12.899,10.37 34.774,107.63 54.774,199.63 70.664,73.22 125.441,114.18 137.824,171.85 0,0 79.902,-103.49 187.592,-127.83 88.78,-20.09 198.66,-37.27 245.26,-27.96 -40.12,40.12 -51.58,115.99 -51.58,115.99 0,0 62.04,-113.61 120.43,-123.53 20.06,-97.62 42.79,-207.23 53.59,-216.31 15.68,-13.21 17.18,182.55 16.82,285.64 58.21,181 -166.9,314.22 -287.51,342.08"
         style="fill:#683c11;fill-opacity:1;fill-rule:nonzero;stroke:none"
         id="path2216" /><path
         d="m 893.395,1086.29 c 0,-25.41 -20.606,-46.02 -46.028,-46.02 -25.41,0 -46.043,20.61 -46.043,46.02 0,25.45 20.633,46.03 46.043,46.03 25.422,0 46.028,-20.58 46.028,-46.03"
         style="fill:#683c11;fill-opacity:1;fill-rule:nonzero;stroke:none"
         id="path2218" /><path
         d="m 1187.44,1132.32 c -25.45,0 -46.03,-20.58 -46.03,-46.03 0,-25.41 20.58,-46.02 46.03,-46.02 25.4,0 46.03,20.61 46.03,46.02 0,25.45 -20.63,46.03 -46.03,46.03"
         style="fill:#432918;fill-opacity:1;fill-rule:nonzero;stroke:none"
         id="path2220" /><path
         d="m 847.633,1132.75 c 25.469,0 46.023,-20.6 46.023,-46.03 0,-25.41 -20.554,-46.02 -46.023,-46.02 -25.403,0 -46.016,20.61 -46.016,46.02 0,25.43 20.613,46.03 46.016,46.03"
         style="fill:#432918;fill-opacity:1;fill-rule:nonzero;stroke:none"
         id="path2222" /><path
         d="m 1187.38,1132.21 c -25.45,0 -46.02,-20.58 -46.02,-46.03 0,-25.41 20.57,-46.02 46.02,-46.02 25.4,0 46.04,20.61 46.04,46.02 0,25.45 -20.64,46.03 -46.04,46.03"
         style="fill:#432918;fill-opacity:1;fill-rule:nonzero;stroke:none"
         id="path2224" /><path
         d="m 1199.4,1221.21 c -47.1,3.89 -60.64,7.7 -99.84,17.08 -20.66,4.94 -5.77,-57.92 88.34,-62.81 79.5,-4.14 135.23,-20.84 135.23,-20.84 0,0 -56.16,60.95 -123.73,66.57"
         style="fill:#683c11;fill-opacity:1;fill-rule:nonzero;stroke:none"
         id="path2226" /><path
         d="m 833.301,1221.21 c 47.09,3.89 60.644,7.7 99.844,17.08 20.656,4.94 5.773,-57.92 -88.34,-62.81 -79.512,-4.14 -135.242,-20.84 -135.242,-20.84 0,0 56.16,60.95 123.738,66.57"
         style="fill:#683c11;fill-opacity:1;fill-rule:nonzero;stroke:none"
         id="path2228" /><path
         d="m 1163.86,794.09 c 0,0 -156.24,-67.891 -245.579,-38.942 57.078,15.993 101.069,18.864 151.939,30.5 30.88,7.071 93.64,8.442 93.64,8.442"
         style="fill:#e58965;fill-opacity:1;fill-rule:nonzero;stroke:none"
         id="path2230" /><path
         d="m 1163.23,793.82 c 0,0 -203.679,13.512 -244.949,-38.672 56.914,10.254 107.609,21.493 160.649,27.571 32.18,3.691 84.3,11.101 84.3,11.101"
         style="fill:#e28156;fill-opacity:1;fill-rule:nonzero;stroke:none"
         id="path2232" /></g></g></svg>
